<svg width="20px" height="20px" viewBox="536 206 20 20" version="1.1" xmlns="http://www.w3.org/2000/svg" xmlns:xlink="http://www.w3.org/1999/xlink">
    <!-- Generator: Sketch 3.8.3 (29802) - http://www.bohemiancoding.com/sketch -->
    <desc>Created with Sketch.</desc>
    <defs></defs>
    <g id="Group" stroke="none" stroke-width="1" fill="none" fill-rule="evenodd" transform="translate(536.000000, 206.000000)">
        <path d="M8.44133333,17.5046667 C7.28866667,17.4653333 6.18533333,17.852 5.20533333,18.5713333 C6.58,19.3906667 8.17466667,19.8826667 9.88866667,19.94 C10.7853333,19.9686667 11.656,19.8733333 12.4866667,19.6766667 C11.3826667,18.3546667 9.98133333,17.554 8.44133333,17.5046667 L8.44133333,17.5046667 Z" id="Shape" fill="#1ED760"></path>
        <path d="M10.5206667,0.612666667 C5.144,0.436666667 0.642666667,4.62066667 0.468,9.958 C0.392,12.2746667 1.144,14.4266667 2.46,16.1353333 C4.15666667,14.8413333 6.198,14.1106667 8.376,14.182 C11.1946667,14.2733333 13.7006667,15.6873333 15.4713333,17.8893333 C15.5626667,18.0013333 15.6506667,18.1186667 15.738,18.2366667 C18.1913333,16.5546667 19.8373333,13.7806667 19.9426667,10.5946667 C20.1166667,5.25733333 15.8986667,0.788666667 10.5206667,0.612666667 L10.5206667,0.612666667 Z M13.7,13.7873333 C13.614,13.9253333 13.4633333,13.998 13.31,13.9933333 C13.234,13.992 13.158,13.97 13.0893333,13.9266667 C13.0886667,13.9266667 13.0006667,13.872 12.82,13.7753333 C12.6393333,13.68 12.3733333,13.546 12.0413333,13.408 C11.38,13.128 10.4513333,12.8193333 9.41533333,12.7 C9.09733333,12.6633333 8.79133333,12.6413333 8.49733333,12.632 C7.18,12.5893333 6.14533333,12.7833333 5.72333333,12.8793333 C5.58266667,12.912 5.51733333,12.9313333 5.51733333,12.9313333 C5.28133333,12.9993333 5.03533333,12.8646667 4.96666667,12.632 C4.898,12.4 5.03266667,12.1553333 5.26733333,12.0866667 C5.29733333,12.0786667 6.63333333,11.692 8.526,11.7533333 C8.842,11.764 9.174,11.786 9.51666667,11.826 C11.816,12.0926667 13.5286667,13.1646667 13.56,13.18 L13.56,13.1813333 C13.768,13.3093333 13.8293333,13.5813333 13.7,13.7873333 L13.7,13.7873333 Z M14.922,11.4006667 C14.8133333,11.5726667 14.6246667,11.664 14.4346667,11.6573333 C14.3386667,11.6546667 14.2446667,11.6273333 14.1586667,11.574 C14.1586667,11.574 14.1393333,11.5606667 14.0873333,11.5313333 C14.034,11.5013333 13.9546667,11.4573333 13.8513333,11.4026667 C13.6433333,11.292 13.3373333,11.1386667 12.956,10.978 C12.194,10.658 11.1273333,10.302 9.936,10.1653333 C9.57133333,10.124 9.21733333,10.0986667 8.88,10.0873333 C7.36533333,10.038 6.17333333,10.262 5.68933333,10.3726667 C5.52733333,10.4093333 5.454,10.4313333 5.45333333,10.4313333 C5.16,10.516 4.85266667,10.3493333 4.76666667,10.0566667 C4.68,9.766 4.84866667,9.46 5.14266667,9.37666667 C5.18,9.36466667 6.726,8.918 8.91666667,8.99 C9.282,9.00066667 9.66533333,9.028 10.062,9.07333333 C12.7273333,9.38333333 14.7086667,10.62 14.7473333,10.6426667 C15.006,10.804 15.0846667,11.1426667 14.922,11.4006667 L14.922,11.4006667 Z M16.232,8.97866667 C16.1013333,9.186 15.8746667,9.29533333 15.646,9.28866667 C15.5326667,9.28466667 15.4186667,9.252 15.3153333,9.18866667 C15.3153333,9.18866667 15.2926667,9.17333333 15.23,9.138 C15.1686667,9.10133333 15.0753333,9.04933333 14.9526667,8.98466667 C14.708,8.85466667 14.3486667,8.676 13.8986667,8.48733333 C13.0006667,8.10866667 11.7433333,7.68933333 10.34,7.528 C9.90933333,7.47866667 9.49266667,7.45 9.096,7.438 C7.01266667,7.368 5.44933333,7.73866667 5.12133333,7.82466667 C5.07466667,7.83666667 5.058,7.84 5.058,7.84 C4.706,7.94266667 4.33666667,7.74266667 4.23333333,7.392 C4.13066667,7.04333333 4.332,6.676 4.68533333,6.574 C4.72933333,6.56066667 6.554,6.03333333 9.14,6.118 C9.57133333,6.13133333 10.0233333,6.162 10.492,6.21666667 C13.6386667,6.58266667 15.9746667,8.04333333 16.022,8.06933333 C16.3333333,8.26266667 16.4266667,8.67 16.232,8.97866667 L16.232,8.97866667 Z" id="Shape" fill="#1ED760"></path>
    </g>
</svg>
