<svg width="38px" height="26px" viewBox="133 165 38 26" version="1.1" xmlns="http://www.w3.org/2000/svg" xmlns:xlink="http://www.w3.org/1999/xlink">
    <!-- Generator: Sketch 3.8.3 (29802) - http://www.bohemiancoding.com/sketch -->
    <desc>Created with Sketch.</desc>
    <defs>
        <rect id="path-1" x="133" y="165" width="38" height="26" rx="7.5"></rect>
        <mask id="mask-2" maskContentUnits="userSpaceOnUse" maskUnits="objectBoundingBox" x="0" y="0" width="38" height="26" fill="white">
            <use xlink:href="#path-1"></use>
        </mask>
    </defs>
    <use id="Rectangle-602" stroke="#DADADA" mask="url(#mask-2)" stroke-width="3" fill="#FFFFFF" fill-rule="evenodd" xlink:href="#path-1"></use>
    <g id="Group" stroke="none" stroke-width="1" fill="none" fill-rule="evenodd" transform="translate(144.000000, 169.000000)">
        <path d="M6.75306667,14.0037333 C5.83093333,13.9722667 4.94826667,14.2816 4.16426667,14.8570667 C5.264,15.5125333 6.53973333,15.9061333 7.91093333,15.952 C8.62826667,15.9749333 9.3248,15.8986667 9.98933333,15.7413333 C9.10613333,14.6837333 7.98506667,14.0432 6.75306667,14.0037333 L6.75306667,14.0037333 Z" id="Shape" fill="#1ED760"></path>
        <path d="M8.41653333,0.490133333 C4.1152,0.349333333 0.514133333,3.69653333 0.3744,7.9664 C0.3136,9.81973333 0.9152,11.5413333 1.968,12.9082667 C3.32533333,11.8730667 4.9584,11.2885333 6.7008,11.3456 C8.95573333,11.4186667 10.9605333,12.5498667 12.3770667,14.3114667 C12.4501333,14.4010667 12.5205333,14.4949333 12.5904,14.5893333 C14.5530667,13.2437333 15.8698667,11.0245333 15.9541333,8.47573333 C16.0933333,4.20586667 12.7189333,0.630933333 8.41653333,0.490133333 L8.41653333,0.490133333 Z M10.96,11.0298667 C10.8912,11.1402667 10.7706667,11.1984 10.648,11.1946667 C10.5872,11.1936 10.5264,11.176 10.4714667,11.1413333 C10.4709333,11.1413333 10.4005333,11.0976 10.256,11.0202667 C10.1114667,10.944 9.89866667,10.8368 9.63306667,10.7264 C9.104,10.5024 8.36106667,10.2554667 7.53226667,10.16 C7.27786667,10.1306667 7.03306667,10.1130667 6.79786667,10.1056 C5.744,10.0714667 4.91626667,10.2266667 4.57866667,10.3034667 C4.46613333,10.3296 4.41386667,10.3450667 4.41386667,10.3450667 C4.22506667,10.3994667 4.02826667,10.2917333 3.97333333,10.1056 C3.9184,9.92 4.02613333,9.72426667 4.21386667,9.66933333 C4.23786667,9.66293333 5.30666667,9.3536 6.8208,9.40266667 C7.0736,9.4112 7.3392,9.4288 7.61333333,9.4608 C9.4528,9.67413333 10.8229333,10.5317333 10.848,10.544 L10.848,10.5450667 C11.0144,10.6474667 11.0634667,10.8650667 10.96,11.0298667 L10.96,11.0298667 Z M11.9376,9.12053333 C11.8506667,9.25813333 11.6997333,9.3312 11.5477333,9.32586667 C11.4709333,9.32373333 11.3957333,9.30186667 11.3269333,9.2592 C11.3269333,9.2592 11.3114667,9.24853333 11.2698667,9.22506667 C11.2272,9.20106667 11.1637333,9.16586667 11.0810667,9.12213333 C10.9146667,9.0336 10.6698667,8.91093333 10.3648,8.7824 C9.7552,8.5264 8.90186667,8.2416 7.9488,8.13226667 C7.65706667,8.0992 7.37386667,8.07893333 7.104,8.06986667 C5.89226667,8.0304 4.93866667,8.2096 4.55146667,8.29813333 C4.42186667,8.32746667 4.3632,8.34506667 4.36266667,8.34506667 C4.128,8.4128 3.88213333,8.27946667 3.81333333,8.04533333 C3.744,7.8128 3.87893333,7.568 4.11413333,7.50133333 C4.144,7.49173333 5.3808,7.1344 7.13333333,7.192 C7.4256,7.20053333 7.73226667,7.2224 8.0496,7.25866667 C10.1818667,7.50666667 11.7669333,8.496 11.7978667,8.51413333 C12.0048,8.6432 12.0677333,8.91413333 11.9376,9.12053333 L11.9376,9.12053333 Z M12.9856,7.18293333 C12.8810667,7.3488 12.6997333,7.43626667 12.5168,7.43093333 C12.4261333,7.42773333 12.3349333,7.4016 12.2522667,7.35093333 C12.2522667,7.35093333 12.2341333,7.33866667 12.184,7.3104 C12.1349333,7.28106667 12.0602667,7.23946667 11.9621333,7.18773333 C11.7664,7.08373333 11.4789333,6.9408 11.1189333,6.78986667 C10.4005333,6.48693333 9.39466667,6.15146667 8.272,6.0224 C7.92746667,5.98293333 7.59413333,5.96 7.2768,5.9504 C5.61013333,5.8944 4.35946667,6.19093333 4.09706667,6.25973333 C4.05973333,6.26933333 4.0464,6.272 4.0464,6.272 C3.7648,6.35413333 3.46933333,6.19413333 3.38666667,5.9136 C3.30453333,5.63466667 3.4656,5.3408 3.74826667,5.2592 C3.78346667,5.24853333 5.2432,4.82666667 7.312,4.8944 C7.65706667,4.90506667 8.01866667,4.9296 8.3936,4.97333333 C10.9109333,5.26613333 12.7797333,6.43466667 12.8176,6.45546667 C13.0666667,6.61013333 13.1413333,6.936 12.9856,7.18293333 L12.9856,7.18293333 Z" id="Shape" fill="#1ED760"></path>
    </g>
</svg>
